<html>
<head>
<meta charset="UTF-8">
<meta name="viewport" content="width=device-width, initial-scale=1.0"/>

<style>
.comment
{
    padding-left: 20px;
    margin-top: 4px;
    margin-right: 4px;
    margin-bottom: 4px;
    border: 2px #000 solid;
}
.submission
{
    border: 4px #00f solid;
    padding-left: 20px;
}
.hidden
{
    display: none;
}
</style>
</head>
<body><div class="submission" id="t3_5ytvyw">
    <p class="userinfo">
        <a href="https://www.reddit.com/u/jodorowsthesky">jodorowsthesky</a>
        <span class="score"> | 19 points</span>
        <span class="timestamp"> | Mar 11 2017 17:55:51</span>
    </p>
    <strong>[MOVIE] An Affair To Remember (1957) [720p][x264][1.35GB]</strong>
    <p><p>.nz/#!u0sR2TLC!PY-v7T6WQM8t9pX8p5Vjr4zbJpK6TXKWvuTadNhp1Vg </p>
<pre><code>Format                                   : MPEG-4
Format profile                           : Base Media
Codec ID                                 : isom (isom/iso2/avc1/mp41)
File size                                : 1.39 GiB
Duration                                 : 1 h 54 min
Overall bit rate                         : 1 731 kb/s
Movie name                               : An.Affair.To.Remember.1957.720p.BluRay.H264.AAC-RARBG
Encoded date                             : UTC 2016-01-10 19:31:58
Tagged date                              : UTC 2016-01-10 19:31:58
Writing application                      : Lavf56.40.101
Comment                                  : An.Affair.To.Remember.1957.720p.BluRay.H264.AAC-RARBG

Video
ID                                       : 1
Format                                   : AVC
Format/Info                              : Advanced Video Codec
Format profile                           : High@L4.1
Format settings, CABAC                   : Yes
Format settings, ReFrames                : 4 frames
Codec ID                                 : avc1
Codec ID/Info                            : Advanced Video Coding
Duration                                 : 1 h 54 min
Bit rate                                 : 1 500 kb/s
Width                                    : 1 280 pixels
Height                                   : 534 pixels
Display aspect ratio                     : 2.40:1
Frame rate mode                          : Constant
Frame rate                               : 23.976 (23976/1000) FPS
Color space                              : YUV
Chroma subsampling                       : 4:2:0
Bit depth                                : 8 bits
Scan type                                : Progressive
Bits/(Pixel*Frame)                       : 0.092
Stream size                              : 1.20 GiB (87%)
Writing library                          : x264 core 148 r2638M 7599210
Encoding settings                        : cabac=1 / ref=4 / deblock=1:-1:-1 / analyse=0x3:0x113 / me=umh / subme=9 / psy=1 / psy_rd=1.00:0.15 / mixed_ref=1 / me_range=24 / chroma_me=1 / trellis=2 / 8x8dct=1 / cqm=0 / deadzone=21,11 / fast_pskip=1 / chroma_qp_offset=-3 / threads=32 / lookahead_threads=4 / sliced_threads=0 / nr=0 / decimate=1 / interlaced=0 / bluray_compat=0 / constrained_intra=0 / bframes=3 / b_pyramid=2 / b_adapt=2 / b_bias=0 / direct=3 / weightb=1 / open_gop=0 / weightp=2 / keyint=250 / keyint_min=25 / scenecut=40 / intra_refresh=0 / rc_lookahead=50 / rc=2pass / mbtree=1 / bitrate=1500 / ratetol=1.0 / qcomp=0.60 / qpmin=0 / qpmax=69 / qpstep=4 / cplxblur=20.0 / qblur=0.5 / vbv_maxrate=31250 / vbv_bufsize=31250 / nal_hrd=none / filler=0 / ip_ratio=1.40 / aq=3:1.00
Encoded date                             : UTC 2016-01-10 19:31:58
Tagged date                              : UTC 2016-01-10 19:31:58

Audio
ID                                       : 2
Format                                   : AAC
Format/Info                              : Advanced Audio Codec
Format profile                           : LC
Codec ID                                 : 40
Duration                                 : 1 h 54 min
Bit rate mode                            : Constant
Bit rate                                 : 224 kb/s
Channel(s)                               : 2 channels
Channel(s)_Original                      : 6 channels
Channel positions                        : Front: L C R, Side: L R, LFE
Sampling rate                            : 48.0 kHz
Frame rate                               : 46.875 FPS (1024 spf)
Compression mode                         : Lossy
Stream size                              : 184 MiB (13%)
Language                                 : English
Default                                  : Yes
Alternate group                          : 1
Encoded date                             : UTC 2016-01-10 19:31:58
Tagged date                              : UTC 2016-01-10 19:31:58
</code></pre></p>
    <p class="toolbar">
        <a href="https://www.reddit.com/r/megalinks/comments/5ytvyw">permalink</a>
    </p>
</div>
<div class="comment" id="t1_det4c0y">
    <p class="userinfo">
        <a
        class="toggle_hide_button"
        href="javascript:void(0)"
        onclick="toggle_collapse(this.parentElement.parentElement)">[-]
        </a>
        [deleted]
        <span class="score"> | 5 points</span>
        <span class="timestamp"> | Mar 11 2017 21:52:06</span>
    </p>
    <div class="collapsible">
        <p>Nice to see some older movies popping up here. Thank you for your efforts!</p>
        <p class="toolbar">
            <a href="https://www.reddit.com/r/megalinks/comments/5ytvyw/_/det4c0y">permalink</a>
        </p>
        <div class="comment" id="t1_detjsi3">
    <p class="userinfo">
        <a
        class="toggle_hide_button"
        href="javascript:void(0)"
        onclick="toggle_collapse(this.parentElement.parentElement)">[-]
        </a>
        <a href="https://www.reddit.com/u/jn78">jn78</a>
        <span class="score"> | 1 points</span>
        <span class="timestamp"> | Mar 12 2017 04:31:29</span>
    </p>
    <div class="collapsible">
        <p>/u/jodorowsthesky posts some fantastic stuff. </p>
<p>Eventually you don't even need to look to know who up'd some of it :)</p>
        <p class="toolbar">
            <a href="https://www.reddit.com/r/megalinks/comments/5ytvyw/_/detjsi3">permalink</a>
        </p>
        
    </div>
</div>
    </div>
</div>

<div class="comment" id="t1_desuega">
    <p class="userinfo">
        <a
        class="toggle_hide_button"
        href="javascript:void(0)"
        onclick="toggle_collapse(this.parentElement.parentElement)">[-]
        </a>
        <a href="https://www.reddit.com/u/SubZorro">SubZorro</a>
        <span class="score"> | 2 points</span>
        <span class="timestamp"> | Mar 11 2017 17:56:05</span>
    </p>
    <div class="collapsible">
        <h5>Subtitles for this movie:</h5>
<hr>
<blockquote>
<ul>
<li>
<p><strong>An.Affair.To.Remember.1957.BluRay.720p.x264.DTS-MySiLU</strong> - <code>1 CD</code> - <a href="http://dl.opensubtitles.org/en/download/vrf-0fafbd6c/sub/5461288">Download Subtitle</a></p>
</li>
<li>
<p><strong>An.Affair.To.Remember.1957.BluRay.720p.x264.DTS-MySiLU.eng.srt</strong> - <code>1 CD</code> - <a href="http://dl.opensubtitles.org/en/download/vrf-c2d0eea0/sub/5735721">Download Subtitle</a></p>
</li>
<li>
<p><strong>An.Affair.To.Remember.1957.BluRay.720p.H264</strong> - <code>1 CD</code> - <a href="http://dl.opensubtitles.org/en/download/vrf-e6369638/sub/4961448">Download Subtitle</a></p>
</li>
<li>
<p><strong>An Affair To Remember (1957) DivX DVDRip</strong> - <code>1 CD</code> - <a href="http://dl.opensubtitles.org/en/download/vrf-3c4b55d8/sub/3577491">Download Subtitle</a></p>
</li>
<li>
<p><strong>An Affair To Remember - Eng - 23,976fps - 1957 - (SChiZO)</strong> - <code>1 CD</code> - <a href="http://dl.opensubtitles.org/en/download/vrf-b4027717/sub/3336493">Download Subtitle</a></p>
</li>
</ul>
</blockquote>
<hr>
<p>^This ^list ^of ^subtitles ^are ^taken ^from <a href="http://www.opensubtitles.org">^opensubtitles.org</a> ^| ^For ^feedback ^or ^suggestions ^contact <a href="http://www.reddit.com/message/compose/?to=indigo6alpha">^/u/indigo6alpha</a></p>
        <p class="toolbar">
            <a href="https://www.reddit.com/r/megalinks/comments/5ytvyw/_/desuega">permalink</a>
        </p>
        
    </div>
</div>

<div class="comment" id="t1_dffwcph">
    <p class="userinfo">
        <a
        class="toggle_hide_button"
        href="javascript:void(0)"
        onclick="toggle_collapse(this.parentElement.parentElement)">[-]
        </a>
        <a href="https://www.reddit.com/u/swifty7777">swifty7777</a>
        <span class="score"> | 1 points</span>
        <span class="timestamp"> | Mar 26 2017 20:52:07</span>
    </p>
    <div class="collapsible">
        <p>where's the megalink?</p>
        <p class="toolbar">
            <a href="https://www.reddit.com/r/megalinks/comments/5ytvyw/_/dffwcph">permalink</a>
        </p>
        
    </div>
</div>
</body>

<script>
function toggle_collapse(comment_div)
{
    var button = comment_div.getElementsByClassName("toggle_hide_button")[0];
    var collapsible = comment_div.getElementsByClassName("collapsible")[0];
    if (collapsible.classList.contains("hidden"))
    {
        collapsible.classList.remove("hidden");
        button.innerText = "[-]";
    }
    else
    {
        collapsible.classList.add("hidden");
        button.innerText = "[+]";
    }
}
</script>
</html>
